HIERARCHY
ROOT Hips
{
     OFFSET -3.33309 95.37400 35.43240
     CHANNELS 6 Xposition Yposition Zposition Zrotation Xrotation Yrotation
     JOINT Spine
     {
          OFFSET 0.00000 11.89050 0.00000
          CHANNELS 3 Zrotation Xrotation Yrotation
          JOINT Spine1
          {
               OFFSET 0.00000 25.65740 0.12766
               CHANNELS 3 Zrotation Xrotation Yrotation
               JOINT HEad
               {
                    OFFSET 0.00000 8.73416 0.01134
                    CHANNELS 3 Zrotation Xrotation Yrotation
                    End Site
                    {
                         OFFSET -0.29000 12.77420 2.51395
                    }
               }
               JOINT LeftShoulder1
               {
                    OFFSET 8.99000 -0.36225 -0.22000
                    CHANNELS 3 Zrotation Xrotation Yrotation
                    JOINT LeftArm
                    {
                         OFFSET 10.28270 -0.00338 0.32212
                         CHANNELS 3 Zrotation Xrotation Yrotation
                         JOINT LeftForeArm
                         {
                              OFFSET 32.76690 0.09914 -1.42434
                              CHANNELS 3 Zrotation Xrotation Yrotation
                              JOINT LeftHand
                              {
                                   OFFSET 27.56430 0.08536 1.02216
                                   CHANNELS 3 Zrotation Xrotation Yrotation
                                   End Site
                                   {
                                        OFFSET 16.74430 -0.60000 1.50291
                                   }
                              }
                         }
                    }
               }
               JOINT RightShoulder
               {
                    OFFSET -8.99000 -0.36225 -0.22000
                    CHANNELS 3 Zrotation Xrotation Yrotation
                    JOINT RightArm
                    {
                         OFFSET -10.28270 -0.00338 0.32212
                         CHANNELS 3 Zrotation Xrotation Yrotation
                         JOINT RightForeArm
                         {
                              OFFSET -32.89710 0.09914 -1.42434
                              CHANNELS 3 Zrotation Xrotation Yrotation
                              JOINT RightHand
                              {
                                   OFFSET -27.49210 0.08536 1.02216
                                   CHANNELS 3 Zrotation Xrotation Yrotation
                                   End Site
                                   {
                                        OFFSET -16.63120 -0.60000 1.50291
                                   }
                              }
                         }
                    }
               }
          }
     }
     JOINT LeftUpLeg
     {
          OFFSET 8.94580 -8.66707 0.10165
          CHANNELS 3 Zrotation Xrotation Yrotation
          JOINT LeftLeg
          {
               OFFSET 0.00000 -44.42270 1.37270
               CHANNELS 3 Zrotation Xrotation Yrotation
               JOINT LeftFoot
               {
                    OFFSET -0.25355 -42.09240 -1.46059
                    CHANNELS 3 Zrotation Xrotation Yrotation
                    JOINT LeftToes
                    {
                         OFFSET -0.04000 -4.41509 8.49910
                         CHANNELS 3 Zrotation Xrotation Yrotation
                         End Site
                         {
                              OFFSET 0.08000 -0.04745 9.77979
                         }
                    }
               }
          }
     }
     JOINT RightUpLeg
     {
          OFFSET -8.94580 -8.66707 0.10165
          CHANNELS 3 Zrotation Xrotation Yrotation
          JOINT RightLeg
          {
               OFFSET 0.00000 -44.42270 1.37270
               CHANNELS 3 Zrotation Xrotation Yrotation
               JOINT RightFoot
               {
                    OFFSET 0.25355 -42.09240 -1.46059
                    CHANNELS 3 Zrotation Xrotation Yrotation
                    JOINT RightToes
                    {
                         OFFSET 0.04000 -4.41509 8.49910
                         CHANNELS 3 Zrotation Xrotation Yrotation
                         End Site
                         {
                              OFFSET -0.08000 -0.13745 9.77979
                         }
                    }
               }
          }
     }
}
MOTION
Frames: 10
Frame Time: 0.01667
52.63940 98.12630 9.49316 1.78808 3.92400 -172.58800 1.52265 8.26395 3.24257 -3.95945 17.17500 7.17769 -9.95074 4.31101 16.20060 0.00000 0.00000 0.00000 -87.38240 -48.26500 -53.25370 1.01273 38.53400 -112.67600 19.62810 9.81916 3.84419 7.89617 1.01034 5.91331 70.22450 -2.89313 66.62130 -0.69438 31.26160 96.72620 -1.83055 9.81062 5.14816 19.91220 -16.91330 4.48375 -6.26215 20.87480 14.73480 -8.44426 5.35614 0.91058 0.02544 -1.96471 5.29814 -12.82700 5.33278 -1.00444 7.07731 35.25250 -6.38723 28.55900 -12.26060 0.98431 3.93431 15.47910 -24.23570 
52.74790 97.62230 10.44790 1.38041 4.12931 -172.80200 1.80794 8.26990 3.28671 -3.76298 17.26040 7.30478 -10.30830 4.04400 15.17380 0.00000 0.00000 0.00000 -89.38380 -47.58250 -54.33690 1.10633 39.60070 -112.94200 22.13840 10.02980 5.03095 7.72742 0.99573 5.88554 70.88560 -3.27047 67.51890 -0.27033 31.46740 95.95360 -2.06657 9.79052 5.22009 20.14490 -18.00840 4.93590 -7.08488 22.42400 15.14730 -8.65173 5.89188 0.97115 -0.66260 -2.78386 4.66585 -12.16110 6.56986 -1.48643 7.18339 34.04720 -8.80386 27.75930 -13.10690 1.15767 4.21866 16.09450 -24.29870 
52.83100 97.02910 11.42160 1.07947 4.46857 -173.18700 2.20023 8.30622 3.30362 -3.46087 17.42220 7.40747 -10.77650 3.58199 14.41100 0.00000 0.00000 0.00000 -91.26480 -47.48300 -55.76320 1.27522 40.67560 -112.64600 24.10190 10.24780 6.03973 7.57167 0.97997 5.83872 71.51000 -3.55447 68.70200 0.16033 31.66110 95.16530 -2.27878 9.77237 5.27233 20.74390 -19.21710 5.17728 -8.35746 24.40520 16.19070 -8.78653 6.68824 1.04297 -1.84524 -4.14707 3.57273 -11.56020 7.60805 -1.90986 7.09851 33.03510 -11.18100 26.21050 -14.81950 1.47616 4.44630 16.59940 -24.19760 
52.85760 96.36470 12.40560 0.91080 4.97016 -173.74699 2.68600 8.38372 3.28167 -3.03569 17.67760 7.45870 -11.30840 3.01902 13.88520 0.00000 0.00000 0.00000 -92.81670 -47.95770 -57.23640 1.51059 41.62880 -111.92100 25.40450 10.43310 6.80670 7.42991 0.96445 5.78417 72.06270 -3.74874 70.07450 0.51828 31.82430 94.42510 -2.42294 9.75995 5.30591 21.72330 -20.45500 5.14029 -10.14530 26.68670 17.87280 -8.86792 7.71963 1.12623 -3.35145 -5.77552 2.11085 -11.09450 8.42028 -2.29374 6.91448 32.40230 -12.99680 24.06950 -17.31890 1.86712 4.63339 17.02380 -24.03530 
52.79590 95.65070 13.38940 0.88844 5.64478 -174.48900 3.22336 8.51408 3.21060 -2.48093 18.03820 7.42576 -11.88370 2.43705 13.58330 0.00000 0.00000 0.00000 -93.80450 -49.06320 -58.44080 1.71767 42.41350 -110.83900 26.11060 10.54350 7.23334 7.30232 0.95017 5.73113 72.51160 -3.85934 71.50250 0.74853 31.94590 93.79070 -2.46954 9.75581 5.32372 23.03450 -21.63990 4.84818 -12.40250 29.13480 20.01530 -8.94793 8.88528 1.22035 -4.89587 -7.32820 0.55238 -10.83720 8.96897 -2.62262 6.72180 32.29870 -13.84990 21.53680 -20.18850 2.19065 4.76462 17.32030 -23.94450 
52.61610 94.91810 14.35280 1.02162 6.46331 -175.42999 3.76078 8.69714 3.08306 -1.80523 18.48910 7.27589 -12.49740 1.91186 13.49610 0.00000 0.00000 0.00000 -93.94740 -50.89410 -59.02140 1.73903 43.01580 -109.40600 26.32160 10.54130 7.19852 7.19987 0.93796 5.68085 72.82240 -3.89685 72.82210 0.81804 32.02070 93.32120 -2.41198 9.76058 5.32473 24.57230 -22.70900 4.42498 -14.92550 31.63670 22.24700 -9.10293 10.04230 1.32708 -6.15992 -8.53138 -0.72763 -10.83900 9.20460 -2.84498 6.59012 32.79410 -13.63850 18.83690 -22.82680 2.32249 4.78645 17.36800 -23.94480 
52.29790 94.21010 15.26190 1.30902 7.34340 -176.59500 4.24470 8.91301 2.89940 -1.04081 18.97610 6.98687 -13.14200 1.51726 13.60310 0.00000 0.00000 0.00000 -92.87920 -53.53110 -58.53960 1.37362 43.42550 -107.54600 26.08800 10.39550 6.56728 7.14851 0.92831 5.62218 72.95890 -3.87560 73.85450 0.72592 32.04670 93.07240 -2.26992 9.77266 5.30498 26.19010 -23.62520 4.05602 -17.36510 34.11850 24.07490 -9.40971 11.05580 1.45114 -6.92579 -9.28629 -1.40155 -11.10160 9.07774 -2.90155 6.53613 33.83680 -12.54590 16.23220 -24.70890 2.23210 4.62631 17.02120 -23.91590 
51.83810 93.57590 16.07710 1.72553 8.15547 -178.01100 4.61652 9.12389 2.66876 -0.24917 19.40990 6.55932 -13.79830 1.32000 13.86790 0.00000 0.00000 0.00000 -90.04640 -56.96580 -56.36960 0.39678 43.61540 -105.09800 25.38320 10.08530 5.19177 7.18186 0.92094 5.53280 72.88700 -3.81095 74.42880 0.52333 32.02310 93.07780 -2.08545 9.78845 5.26436 27.72650 -24.37410 3.89795 -19.32490 36.52630 25.03520 -9.91178 11.83000 1.59520 -7.16829 -9.68154 -1.31520 -11.56840 8.54956 -2.76455 6.49623 35.25370 -10.88060 14.00350 -25.58550 1.99239 4.23851 16.18870 -23.71570 
51.25050 93.06250 16.76810 2.21959 8.75126 -179.70599 4.81836 9.28344 2.40437 0.48633 19.68800 6.02503 -14.44470 1.36079 14.25430 0.00000 0.00000 0.00000 -84.50620 -60.99440 -51.50220 -1.38601 43.50910 -101.85700 24.12010 9.61782 2.94890 7.32421 0.91440 5.38721 72.58210 -3.71361 74.41330 0.31789 31.94800 93.33080 -1.91149 9.80337 5.21157 29.04270 -24.94740 3.99201 -20.50490 38.76870 24.85390 -10.59460 12.30530 1.75247 -7.04222 -9.92244 -0.52840 -12.13990 7.59604 -2.45246 6.32900 36.80130 -8.90677 12.36360 -25.52870 1.71644 3.64811 14.90640 -23.30220 
50.51840 92.76300 17.27540 2.73229 9.00619 178.23199 4.82939 9.35036 2.16483 1.08665 19.72670 5.44529 -15.07610 1.62900 14.75310 0.00000 0.00000 0.00000 -74.71050 -65.06100 -42.32870 -4.02327 42.95680 -97.70440 22.19290 9.06226 -0.14493 7.56964 0.90595 5.16948 72.03610 -3.58209 73.74710 0.24155 31.81990 93.78430 -1.79832 9.81310 5.16498 30.01100 -25.21730 4.21822 -20.77480 40.60670 23.55990 -11.37950 12.41480 1.89986 -6.79213 -10.23430 0.71783 -12.73170 6.34121 -1.98510 5.83949 37.98480 -6.69485 11.37210 -24.71110 1.47246 2.94877 13.34590 -22.76340 
